<svg xmlns="http://www.w3.org/2000/svg" xmlns:xlink="http://www.w3.org/1999/xlink" style="display:none">
    <symbol viewBox='0 0 22 20' id='icon-angry'>
        <path d="M11 1C5.444 1 1 4.375 1 10s4.444 9 10 9c5.555 0 10-3.375 10-9s-4.445-9-10-9z" fill="#f37e35"></path>
        <g fill="#231f20">
            <path d="M6.133 7.737c.585.586 1.616.507 2.297-.176.236-.235.389-.513.477-.798l.369.185.447-.895-4-2-.447.894 1.019.509c-.668.683-.743 1.7-.162 2.281zM13.093 6.763c.088.285.24.562.476.798.684.683 1.713.763 2.299.177.581-.581.506-1.598-.163-2.28l1.02-.51-.447-.895-4 2 .447.895.368-.185zM17.14 13.099c-1.07-1.784-3.365-2.849-6.14-2.849s-5.069 1.065-6.139 2.849a.75.75 0 0 0 1.286.771c.796-1.327 2.61-2.12 4.853-2.12 2.242 0 4.057.793 4.853 2.12a.752.752 0 0 0 1.03.258.751.751 0 0 0 .257-1.029z"></path>
        </g>
    </symbol>
    <symbol viewBox='0 0 22 20' id='icon-bear'>
        <g fill="#d1ac71">
            <ellipse transform="rotate(152.424 16.265 9.715)" cx="16.265" cy="9.715" rx="2.1" ry="1.67"></ellipse>
            <ellipse transform="rotate(-152.424 5.865 9.714)" cx="5.865" cy="9.714" rx="2.1" ry="1.67"></ellipse>
        </g>
        <ellipse cx="7.854" cy="3" rx="2.146" ry="2" fill="#705c3d"></ellipse>
        <ellipse cx="14.146" cy="3" rx="2.146" ry="2" fill="#705c3d"></ellipse>
        <ellipse cx="11" cy="5.6" rx="4" ry="3.5" fill="#d1ac71"></ellipse>
        <ellipse cx="11" cy="13.25" rx="5" ry="4.75" fill="#d1ac71"></ellipse>
        <g>
            <ellipse transform="rotate(-33.688 5.647 16)" cx="5.646" cy="16" rx="2" ry="3" fill="#705c3d"></ellipse>
            <ellipse transform="scale(-1) rotate(33.688 52.845 -54.012)" cx="16.354" cy="16" rx="2" ry="3" fill="#705c3d"></ellipse>
            <circle cx="11" cy="14" r="2.5" fill="#e8d5b7"></circle>
            <circle cx="6" cy="16.498" r="1" fill="#d1ac71"></circle>
            <circle cx="16" cy="16.498" r="1" fill="#d1ac71"></circle>
            <ellipse cx="11" cy="6" rx="1" ry=".75" fill="#231f20"></ellipse>
            <ellipse transform="rotate(45.017 12.361 4.3)" cx="12.361" cy="4.3" rx=".656" ry=".563" fill="#231f20"></ellipse>
            <ellipse transform="rotate(134.983 9.639 4.3)" cx="9.639" cy="4.3" rx=".656" ry=".562" fill="#231f20"></ellipse>
        </g>
        <g>
            <path d="M11.755 8.01a.83.83 0 0 1-.317-.063.93.93 0 0 1-.438-.384.944.944 0 0 1-.437.384c-.34.139-.739.041-1.04-.26a.25.25 0 1 1 .354-.354c.157.157.342.214.495.151.237-.098.378-.462.378-.975a.25.25 0 0 1 .5 0c0 .513.142.877.378.976.152.062.336.006.494-.151a.25.25 0 0 1 .354.354 1.03 1.03 0 0 1-.721.322z" fill="#231f20"></path>
        </g>
    </symbol>
    <symbol viewBox='0 0 22 20' id='icon-bigsmile'>
        <path d="M11 1C5.444 1 1 4.375 1 10s4.444 9 10 9c5.555 0 10-3.375 10-9s-4.445-9-10-9z" fill="#f7b23f"></path>
        <path d="M9.502 5.989c-.108-.079-.162-.205-.409-.331-.223-.128-.489-.29-.78-.356-.289-.105-.618-.115-.942-.156l-.458.052a2.52 2.52 0 0 0-.453.096c-.337.076-.576.232-.781.348-.216.104-.342.274-.45.354-.101.093-.152.15-.152.151a.504.504 0 0 0 .491.825l.109-.026s.061-.014.158-.047c.098-.029.224-.096.388-.129.159-.055.347-.093.505-.114.081-.019.155-.047.305-.046l.337-.016c.206.021.42-.005.61.055.205.03.365.063.507.104.133.011.332.121.43.151.111.043.178.063.178.063a.522.522 0 0 0 .539-.842s-.046-.053-.132-.136zm7.391.136s-.046-.053-.132-.136c-.108-.079-.162-.205-.409-.331-.223-.128-.488-.29-.779-.356-.146-.043-.298-.09-.458-.101l-.241-.028-.122-.013-.062-.007-.03-.003-.016-.001-.008-.001h-.004l-.064.002-.396.049a2.406 2.406 0 0 0-.452.097c-.338.076-.576.232-.782.347-.216.104-.342.274-.45.354-.101.093-.152.151-.152.151a.501.501 0 0 0 .49.824l.11-.026s.061-.015.157-.048c.098-.029.224-.095.388-.129.159-.054.347-.091.505-.112.081-.019.155-.047.306-.046l.341-.016h.016l.02.001.039.002.078.003.155.005c.104-.006.203.021.299.042.205.03.365.063.508.104.132.011.33.122.429.152.111.043.178.062.178.062a.52.52 0 0 0 .538-.841z" fill="#231f20"></path>
        <path d="M17.314 9.473a.5.5 0 0 0-.429-.098c-3.477.816-8.31.816-11.787 0a.5.5 0 0 0-.613.497c.074 3.396 2.75 5.767 6.507 5.767 3.758 0 6.435-2.371 6.508-5.767a.499.499 0 0 0-.186-.399z" fill="#fff"></path>
    </symbol>
    <symbol viewBox='0 0 22 20' id='icon-blush'>
        <path d="M11 1C5.444 1 1 4.375 1 10s4.444 9 10 9c5.555 0 10-3.375 10-9s-4.445-9-10-9z" fill="#f7b23f"></path>
        <g fill="#f7483f">
            <ellipse transform="rotate(45.004 16.71 10.7)" cx="16.712" cy="10.701" rx="2.457" ry="2.107"></ellipse>
            <ellipse transform="scale(-1) rotate(-45.004 -25.83 12.765)" cx="5.288" cy="10.701" rx="2.457" ry="2.107"></ellipse>
        </g>
        <path d="M9.095 6.967s-.067-.02-.178-.063c-.098-.03-.296-.14-.429-.152a4.13 4.13 0 0 0-.507-.104c-.19-.061-.405-.035-.61-.055l-.338.017c-.15-.001-.225.027-.305.046a2.796 2.796 0 0 0-.505.113c-.164.034-.29.1-.388.129a1.786 1.786 0 0 1-.158.047l-.109.027a.503.503 0 0 1-.492-.825s.051-.058.152-.151c.108-.08.234-.25.45-.354.206-.116.445-.272.782-.348.162-.045.337-.091.452-.097l.458-.051c.325.041.653.05.942.155.291.066.557.228.78.356.247.126.3.252.409.331.086.083.132.136.132.136a.522.522 0 0 1-.538.843zM16.354 6.967s-.067-.02-.179-.063c-.098-.03-.296-.14-.428-.152a4.19 4.19 0 0 0-.508-.104c-.189-.061-.404-.035-.609-.055l-.338.017c-.15-.001-.225.027-.305.046a2.89 2.89 0 0 0-.506.112c-.164.034-.289.1-.388.129a1.842 1.842 0 0 1-.157.047l-.109.026a.5.5 0 0 1-.492-.823s.052-.058.152-.151c.108-.08.234-.25.45-.354.206-.115.444-.271.782-.347.162-.045.337-.091.451-.097l.459-.051c.324.041.652.05.941.155.291.066.558.228.781.356.246.126.3.252.408.331.086.083.132.136.132.136a.522.522 0 0 1-.537.842z" fill="#231f20"></path>
        <path d="M17.954 3.848s1.803.59 2.675 1.833c.871 1.246-.064 1.899-.064 1.899s-.932.654-1.805-.591c-.869-1.245-.806-3.141-.806-3.141z" fill="#dbf7ff"></path>
        <g>
            <path fill="none" stroke="#231f20" stroke-linecap="round" stroke-miterlimit="10" d="M12 16.5h-2"></path>
        </g>
    </symbol>
    <symbol viewBox='0 0 22 20' id='icon-confused'>
        <path d="M11 1C5.444 1 1 4.375 1 10s4.444 9 10 9c5.555 0 10-3.375 10-9s-4.445-9-10-9z" fill="#f7b23f"></path>
        <g fill="#231f20">
            <ellipse transform="rotate(45.001 14.63 7.5)" cx="14.63" cy="7.5" rx="1.75" ry="1.501"></ellipse>
            <ellipse transform="rotate(135.008 7.37 7.5)" cx="7.37" cy="7.5" rx="1.75" ry="1.499"></ellipse>
            <path d="M8.86 1.374l.147.99-4.28.642-.148-.99zM13.982 3.241l3.205.907-.272.962-3.205-.908z"></path>
        </g>
        <path d="M12 17h-2a.5.5 0 0 1 0-1h2a.5.5 0 0 1 0 1z" fill="#231f20"></path>
    </symbol>
    <symbol viewBox='0 0 22 20' id='icon-cool'>
        <path d="M11 1C5.444 1 1 4.375 1 10s4.444 9 10 9c5.555 0 10-3.375 10-9s-4.445-9-10-9z" fill="#f7b23f"></path>
        <path fill="#fff" d="M4 6h15v2h-9v1H6z"></path>
        <path d="M0 7h2V6H0v1zm7 0v1h1V7H7zM2 5v1h1v1h1v1h1v1h1v1h5V9h1V8h1V7v1h1v1h5V8h1V7h1V5H2zm8 4H9V8H8v1H7V8H6V7H5V6h1v1h1V6h1v1h1v1h1v1zm8-1h-1V7h-1v1h-1V7h-1V6h1v1h1V6h1v1h1v1zM12 17h-2a.5.5 0 0 1 0-1h2a.5.5 0 0 1 0 1z" fill="#231f20"></path>
    </symbol>
    <symbol viewBox='0 0 22 20' id='icon-cry'>
        <path d="M11 1C5.444 1 1 4.375 1 10s4.444 9 10 9c5.555 0 10-3.375 10-9s-4.445-9-10-9z" fill="#f7b23f"></path>
        <path d="M9.525 5.712s-.022.067-.071.177c-.073.114-.072.254-.26.462-.164.201-.359.447-.607.617-.231.21-.544.328-.84.474l-.45.115c-.108.038-.294.047-.464.057-.349.037-.627-.031-.861-.073-.24-.027-.415-.152-.543-.193-.126-.057-.193-.097-.193-.097a.508.508 0 0 1 .173-.938l.118-.02s.063-.01.166-.016c.103-.008.245.003.409-.025.167-.009.356-.04.505-.082.08-.012.153-.019.296-.068l.321-.094c.183-.091.386-.144.548-.254.185-.09.324-.172.446-.254.121-.052.278-.22.361-.28.093-.076.152-.115.152-.115a.528.528 0 0 1 .794.607z" fill="#231f20"></path>
        <path d="M16.641 7.92s1.187.389 1.761 1.207c.573.819-.042 1.25-.042 1.25s-.613.43-1.188-.389c-.573-.82-.531-2.068-.531-2.068zM4.188 8.573s-1.142.504-1.633 1.375c-.49.872.165 1.239.165 1.239s.653.368 1.144-.504c.489-.872.324-2.11.324-2.11zM4.287 11.432s-.705 1.03-.662 2.029c.044.999.794.966.794.966s.749-.033.706-1.031c-.045-1-.838-1.964-.838-1.964z" fill="#dbf7ff"></path>
        <path d="M13.269 5.105s.059.039.151.115c.084.06.24.228.362.279.121.082.261.164.444.255.162.109.365.162.548.254l.321.094c.143.049.217.056.297.068.149.042.338.073.505.082.164.028.307.017.409.025.103.006.166.016.166.016l.115.019a.508.508 0 0 1 .176.938s-.067.04-.192.097c-.129.041-.304.166-.544.193-.233.043-.513.111-.861.074-.17-.011-.356-.02-.464-.057l-.449-.115c-.296-.146-.608-.264-.84-.474-.249-.17-.444-.416-.607-.618-.188-.208-.188-.348-.261-.461-.049-.11-.071-.177-.071-.177a.528.528 0 0 1 .795-.607z" fill="#231f20"></path>
        <g>
            <path d="M6 13c0-1 1-2 2-2s2 1 3 1 2-1 3-1 2 1 2 2-1 2-2 2-2-1-3-1-2 1-3 1-2-1-2-2z" fill="#d63f37"></path>
        </g>
    </symbol>
    <symbol viewBox='0 0 23 20' id='icon-developer'>
        <path d="M15.5 8a3.5 3.5 0 1 0 0-7 3.5 3.5 0 0 0 0 7zM8 18H3.583l-1.096-4.615a.495.495 0 0 0-.602-.371.5.5 0 0 0-.371.602l1.188 5a.498.498 0 0 0 .486.384H8a.5.5 0 0 0 0-1zm13.994-1.094c-.032-4.629-2.317-7.058-2.58-7.32a1.962 1.962 0 0 0-1.462-.572c-.028-.003-.055-.011-.083-.013a1.482 1.482 0 0 0-1.15.459L12.358 14H6a1.5 1.5 0 1 0 0 3h7c.126 0 .246-.021.362-.049.022-.006.043-.014.065-.021.101-.03.195-.069.286-.119.014-.008.028-.01.042-.018l3.891-2.269c.201.67.354 1.483.354 2.476v1a1 1 0 0 0 1 1h2a1 1 0 0 0 1-1v-1.094h-.006z"></path>
    </symbol>
    <symbol viewBox='0 0 22 20' id='icon-evil'>
        <path d="M19.968 5.742c.273-.73.83-2.862-.712-5.397L18.7.5c0 1.167-.771 1.946-1.312 2.354C15.659 1.65 13.437 1 11 1c-2.439 0-4.664.651-6.393 1.858C4.065 2.452 3.289 1.671 3.289.5L2.732.345c-1.55 2.551-.978 4.692-.707 5.409C1.375 6.969 1 8.389 1 10c0 5.625 4.444 9 10 9 5.555 0 10-3.375 10-9 0-1.617-.377-3.04-1.032-4.258z" fill="#e85646"></path>
        <path d="M6.133 7.737c.585.586 1.616.507 2.297-.176.236-.235.389-.513.477-.798l.369.185.447-.895-4-2-.447.894 1.019.509c-.668.683-.743 1.7-.162 2.281zm6.96-.974c.088.285.24.562.476.798.684.683 1.713.763 2.299.177.581-.581.506-1.598-.163-2.28l1.02-.51-.447-.895-4 2 .447.895.368-.185zm4.047 7.336c-1.07-1.784-3.365-2.849-6.14-2.849s-5.069 1.064-6.139 2.849a.75.75 0 0 0 1.286.771c.796-1.327 2.61-2.12 4.853-2.12 2.242 0 4.057.793 4.853 2.12a.752.752 0 0 0 1.03.258.751.751 0 0 0 .257-1.029z" fill="#231f20"></path>
    </symbol>
    <symbol viewBox='0 0 22 20' id='icon-evilgrin'>
        <path d="M11 1C5.444 1 1 4.375 1 10s4.444 9 10 9c5.555 0 10-3.375 10-9s-4.445-9-10-9z" fill="#f7b23f"></path>
        <g fill="#231f20">
            <path d="M5.276 4.947l1.019.509c-.667.683-.743 1.7-.162 2.281.585.586 1.616.507 2.297-.176.236-.235.389-.513.477-.798l.369.185.447-.895-4-2-.447.894zM16.724 4.947l-.447-.895-4 2 .447.895.369-.185c.088.285.24.562.476.798.684.683 1.713.763 2.299.177.581-.581.506-1.598-.163-2.28l1.019-.51z"></path>
        </g>
        <path d="M17.314 9.473a.5.5 0 0 0-.429-.098c-3.477.816-8.31.816-11.787 0a.5.5 0 0 0-.613.497c.074 3.396 2.75 5.767 6.507 5.767 3.758 0 6.435-2.371 6.508-5.767a.499.499 0 0 0-.186-.399z" fill="#fff"></path>
    </symbol>
    <symbol viewBox='0 0 22 20' id='icon-exclaim'>
        <path d="M11 9C5.444 9 1 12.375 1 18h20c0-5.625-4.445-9-10-9z" fill="#f7b23f"></path>
        <g fill="#231f20">
            <ellipse transform="rotate(45.001 14.63 14.5)" cx="14.63" cy="14.5" rx="1.75" ry="1.501"></ellipse>
            <ellipse transform="rotate(135.008 7.37 14.5)" cx="7.37" cy="14.5" rx="1.75" ry="1.499"></ellipse>
        </g>
        <g fill="#231f20">
            <circle cx="11" cy="10" r="1.5"></circle>
            <path d="M10 7h2l1-7H9z"></path>
        </g>
    </symbol>
    <symbol viewBox='0 0 25 20' id='icon-facepalm'>
        <path d="M14 1c-2.966 0-5.606.97-7.432 2.722a2.753 2.753 0 0 1 1.742.795l3.736 3.734c.071-.378.16-.754.271-1.096.73-2.261 2.12-2.737 3.16-2.738a2.795 2.795 0 0 1 2.787 2.785v.05l-.003.05a156.25 156.25 0 0 0-.21 3.443c-.091 1.754.057 2.94.164 3.807l.041.329c.095.824.08 2.188-.6 3.576C21.381 17.298 24 14.314 24 10c0-5.625-4.445-9-10-9z" fill="#f7b23f"></path>
        <path d="M16.753 10.678c.109-2.109.211-3.473.211-3.473a1.491 1.491 0 0 0-1.488-1.488c-.82.001-1.482.476-1.922 1.837-.446 1.38-.489 3.553-.489 3.553L7.391 5.436a1.485 1.485 0 0 0-2.103 0 1.486 1.486 0 0 0 0 2.104l3.957 3.958a3.898 3.898 0 0 0-.8.603L5.288 8.942a1.489 1.489 0 0 0-2.104 2.105l3.156 3.156a3.852 3.852 0 0 0-.601.803l-2.554-2.557a1.489 1.489 0 0 0-2.104 2.104L5.526 19h10.2c1.319-1.467 1.332-3.142 1.237-3.971-.101-.867-.319-2.242-.21-4.351z" fill="#f7b23f"></path>
        <g>
            <path d="M21.354 8.137a.497.497 0 0 0-.691-.13l-.069.047-.285.195c-.185.115-.404.336-.737.494l-.512.287c-.18.103-.379.139-.568.233a4.99 4.99 0 0 1-.366.145c-.023.402-.049.848-.074 1.337-.003.055-.001.098-.004.151l.13-.034c.243-.047.526-.176.794-.297.262-.122.532-.232.738-.379l.577-.417c.374-.235.576-.56.765-.726l.264-.295a.5.5 0 0 0 .038-.611z" fill="#231f20"></path>
        </g>
    </symbol>
    <symbol viewBox='0 0 22 20' id='icon-heart'>
        <path d="M11 17.25L4 12a5 5 0 0 1 6-8l1 .75L12 4a5 5 0 0 1 6 8l-7 5.25z" fill="#f7483f"></path>
    </symbol>
    <symbol viewBox='0 0 22 20' id='icon-idea'>
        <path d="M11 9C5.444 9 1 12.375 1 18h20c0-5.625-4.445-9-10-9z" fill="#f7b23f"></path>
        <g fill="#231f20">
            <ellipse transform="rotate(45.001 14.63 14.5)" cx="14.63" cy="14.5" rx="1.75" ry="1.501"></ellipse>
            <ellipse transform="rotate(135.008 7.37 14.5)" cx="7.37" cy="14.5" rx="1.75" ry="1.499"></ellipse>
        </g>
        <path fill="#8e8c8d" d="M9 8h4v2H9z"></path>
        <path d="M12.08 7.099a3.216 3.216 0 0 0 2.161-3.039 3.242 3.242 0 0 0-6.482 0c0 1.409.903 2.6 2.161 3.039v1.283h2.161V7.099z" fill="#fff"></path>
        <path d="M13 7.438V11h-1v1h-2v-1H9V7.438C7.812 6.742 7 5.477 7 4c0-2.211 1.789-4 4-4s4 1.789 4 4c0 1.477-.812 2.742-2 3.438zm-1-.626A2.976 2.976 0 0 0 14 4a3.001 3.001 0 0 0-6 0c0 1.305.836 2.406 2 2.812V8h2V6.812zM10 9v1h2V9h-2z"></path>
    </symbol>
    <symbol viewBox='0 0 22 20' id='icon-kitten'>
        <path d="M21.23 10.856l-1.241-.104c-.009-.47-.046-.916-.104-1.344l1.266-.228a.5.5 0 0 0-.178-.985l-1.27.229c-.269-1.125-.712-2.087-1.307-2.888.214-1.157.467-3.229-.18-4.349-.769-1.33-2.821.289-4.139 1.552A11.93 11.93 0 0 0 11 2.35c-1.086 0-2.12.133-3.081.391C6.602 1.477 4.548-.143 3.78 1.188c-.647 1.121-.393 3.193-.179 4.351-.6.806-1.044 1.778-1.312 2.913l-1.264-.228a.5.5 0 1 0-.177.984l1.262.228a12.11 12.11 0 0 0-.101 1.344l-1.241.104a.5.5 0 0 0 .042.998c.014 0 .028 0 .042-.002l1.188-.1c.045.471.138.918.262 1.347l-1.092.394a.5.5 0 0 0 .338.942l1.095-.395C3.966 16.976 7.19 18.646 11 18.646c3.82 0 7.052-1.68 8.365-4.603l1.084.391a.506.506 0 0 0 .641-.301.5.5 0 0 0-.301-.641l-1.084-.391c.122-.429.212-.877.255-1.349l1.187.1.043.002a.499.499 0 0 0 .04-.998z" fill="#e8be5f"></path>
        <g fill="#231f20">
            <ellipse transform="rotate(45.001 14.63 7.63)" cx="14.63" cy="7.63" rx="1.75" ry="1.501"></ellipse>
            <ellipse transform="rotate(135.008 7.37 7.63)" cx="7.37" cy="7.63" rx="1.75" ry="1.499"></ellipse>
        </g>
        <path d="M11 15.031c-1.561 0-2.861-.615-3.479-1.646a.75.75 0 0 1 1.287-.771c.339.566 1.179.917 2.192.917 1.013 0 1.852-.352 2.19-.917a.75.75 0 0 1 1.287.771c-.618 1.031-1.917 1.646-3.477 1.646z" fill="#231f20"></path>
    </symbol>
    <symbol viewBox='0 0 22 20' id='icon-lol'>
        <path d="M11 1C5.444 1 1 4.375 1 10s4.444 9 10 9c5.555 0 10-3.375 10-9s-4.445-9-10-9z" fill="#f7b23f"></path>
        <path d="M6.015 8.296l-.527-.85a6.578 6.578 0 0 1 2.654-.95l-1.596-.913.497-.868 3.388 1.941-.389.914c-.081-.023-1.973-.547-4.027.726zM15.984 8.297c-2.054-1.273-3.947-.75-4.027-.727l-.389-.914 3.39-1.94.496.868-1.597.914a6.568 6.568 0 0 1 2.654.95l-.527.849z" fill="#231f20"></path>
        <path d="M16.023 6.156s1.114-.564 2.099-.392c.985.174.854.913.854.913s-.13.738-1.115.564c-.984-.173-1.838-1.085-1.838-1.085z" fill="#d4eff7"></path>
        <g>
            <path d="M17.314 9.473a.5.5 0 0 0-.429-.098c-3.477.816-8.31.816-11.787 0a.5.5 0 0 0-.613.497c.074 3.396 2.75 5.767 6.507 5.767 3.758 0 6.435-2.371 6.508-5.767a.499.499 0 0 0-.186-.399z" fill="#fff"></path>
        </g>
    </symbol>
    <symbol viewBox='0 0 22 20' id='icon-mindblown-alt'>
        <path d="M11 1c5.556 0 10 3.375 10 9s-4.444 9-10 9c-5.555 0-10-3.375-10-9s4.445-9 10-9z" fill="#f7b23f"></path>
        <ellipse transform="rotate(135.008 7.37 8.76)" cx="7.371" cy="8.759" rx="2.624" ry="2.251" fill="#fff"></ellipse>
        <ellipse transform="rotate(44.992 14.63 8.26)" cx="14.629" cy="8.259" rx="3.5" ry="2.999" fill="#fff"></ellipse>
        <ellipse transform="rotate(134.983 8.466 8.521)" cx="8.466" cy="8.521" rx=".56" ry=".48" fill="#231f20"></ellipse>
        <ellipse transform="rotate(45.017 13.478 8.479)" cx="13.478" cy="8.478" rx=".56" ry=".48" fill="#231f20"></ellipse>
        <path d="M10 17h2a.5.5 0 0 0 0-1h-2a.5.5 0 0 0 0 1z" fill="#231f20"></path>
    </symbol>
    <symbol viewBox='0 0 22 20' id='icon-mrgreen'>
        <path d="M11 1C5.444 1 1 4.375 1 10s4.444 9 10 9c5.555 0 10-3.375 10-9s-4.445-9-10-9z" fill="#57b473"></path>
        <path d="M9.095 6.967s-.067-.02-.178-.063c-.098-.03-.296-.14-.429-.152a4.13 4.13 0 0 0-.507-.104c-.19-.061-.405-.035-.61-.055l-.338.017c-.15-.001-.225.027-.305.046a2.796 2.796 0 0 0-.505.113c-.164.034-.29.1-.388.129a1.786 1.786 0 0 1-.158.047l-.109.027a.503.503 0 0 1-.492-.825s.051-.058.152-.151c.108-.08.234-.25.45-.354.206-.116.445-.272.782-.348.162-.045.337-.091.452-.097l.458-.051c.325.041.653.05.942.155.291.066.557.228.78.356.247.126.3.252.409.331.086.083.132.136.132.136a.522.522 0 0 1-.538.843zM16.354 6.967s-.067-.02-.179-.063c-.098-.03-.296-.14-.428-.152a4.19 4.19 0 0 0-.508-.104c-.189-.061-.404-.035-.609-.055l-.338.017c-.15-.001-.225.027-.305.046a2.89 2.89 0 0 0-.506.112c-.164.034-.289.1-.388.129a1.842 1.842 0 0 1-.157.047l-.109.026a.5.5 0 0 1-.492-.823s.052-.058.152-.151c.108-.08.234-.25.45-.354.206-.115.444-.271.782-.347.162-.045.337-.091.451-.097l.459-.051c.324.041.652.05.941.155.291.066.558.228.781.356.246.126.3.252.408.331.086.083.132.136.132.136a.522.522 0 0 1-.537.842z" fill="#231f20"></path>
        <g>
            <path d="M10.992 10.499c-2.197 0-4.242-.223-6.007-.637.072 3.3 2.712 5.277 6.007 5.277 3.296 0 5.937-1.978 6.008-5.277-1.766.414-3.812.637-6.008.637z" fill="#fff" stroke="#fff" stroke-linecap="round" stroke-linejoin="round" stroke-miterlimit="10"></path>
        </g>
    </symbol>
    <symbol viewBox='0 0 22 20' id='icon-neutral'>
        <path d="M11 1C5.444 1 1 4.375 1 10s4.444 9 10 9c5.555 0 10-3.375 10-9s-4.445-9-10-9z" fill="#f7b23f"></path>
        <g fill="#231f20">
            <ellipse transform="rotate(45.001 14.63 6.5)" cx="14.63" cy="6.5" rx="1.75" ry="1.501"></ellipse>
            <ellipse transform="rotate(135.008 7.37 6.5)" cx="7.37" cy="6.5" rx="1.75" ry="1.499"></ellipse>
        </g>
        <path d="M16.5 13.25h-11a.75.75 0 0 1 0-1.5h11a.75.75 0 0 1 0 1.5z" fill="#231f20"></path>
    </symbol>
    <symbol viewBox='0 0 22 20' id='icon-oops'>
        <path d="M11 1C5.444 1 1 4.375 1 10s4.444 9 10 9c5.555 0 10-3.375 10-9s-4.445-9-10-9z" fill="#f99f71"></path>
        <g fill="#f7483f">
            <ellipse transform="rotate(45.004 16.71 10.7)" cx="16.712" cy="10.701" rx="2.457" ry="2.107"></ellipse>
            <ellipse transform="scale(-1) rotate(-45.004 -25.83 12.765)" cx="5.288" cy="10.701" rx="2.457" ry="2.107"></ellipse>
        </g>
        <g fill="#231f20">
            <path d="M14.289 4.879c-.337.02-.655.142-.896.383-.586.585-.506 1.615.176 2.298.684.683 1.713.763 2.299.177.476-.476.505-1.241.137-1.878l-1.716-.98zM7.711 4.879l-1.716.981c-.368.637-.338 1.402.138 1.877.585.586 1.616.507 2.297-.176.684-.683.764-1.712.178-2.298a1.36 1.36 0 0 0-.897-.384z"></path>
        </g>
        <path d="M15.497 15.009a.752.752 0 0 1-.645-.364c-.616-1.029-2.093-1.669-3.853-1.669-1.759 0-3.236.64-3.853 1.669a.75.75 0 0 1-1.285-.772c.9-1.501 2.821-2.397 5.139-2.397s4.24.896 5.14 2.397a.75.75 0 0 1-.643 1.136z" fill="#231f20"></path>
    </symbol>
    <symbol viewBox='0 0 22 20' id='icon-question'>
        <path d="M11 9C5.444 9 1 12.375 1 18h20c0-5.625-4.445-9-10-9z" fill="#f7b23f"></path>
        <g fill="#231f20">
            <ellipse transform="rotate(45.001 14.63 14.5)" cx="14.63" cy="14.5" rx="1.75" ry="1.501"></ellipse>
            <ellipse transform="rotate(135.008 7.37 14.5)" cx="7.37" cy="14.5" rx="1.75" ry="1.499"></ellipse>
        </g>
        <path d="M15.33 3.114c0-.9-.342-1.618-1.021-2.141-.682-.524-1.619-.792-2.823-.792-1.46 0-2.847.377-4.186 1.144l1.119 2.19c1.083-.572 2.033-.864 2.848-.864.328 0 .584.074.791.195.205.134.314.316.314.535 0 .292-.097.535-.291.767-.194.219-.499.462-.936.742-.548.341-.937.694-1.157 1.059-.205.354-.315.804-.315 1.327v.694h2.481v-.414a.88.88 0 0 1 .206-.596c.146-.17.5-.438 1.059-.803.67-.426 1.157-.876 1.462-1.351.303-.475.449-1.035.449-1.692z" fill="#231f20"></path>
        <circle cx="11" cy="10" r="1.5" fill="#231f20"></circle>
    </symbol>
    <symbol viewBox='0 0 22 20' id='icon-rolleyes'>
        <path d="M11 1C5.444 1 1 4.375 1 10s4.444 9 10 9c5.555 0 10-3.375 10-9s-4.445-9-10-9z" fill="#f7b23f"></path>
        <ellipse transform="rotate(44.992 14.63 8.26)" cx="14.629" cy="8.259" rx="3.5" ry="2.999" fill="#fff"></ellipse>
        <ellipse transform="rotate(135.008 7.37 8.26)" cx="7.371" cy="8.259" rx="3.5" ry="2.999" fill="#fff"></ellipse>
        <ellipse transform="rotate(45.001 15.89 6.5)" cx="15.89" cy="6.5" rx="1.75" ry="1.501" fill="#231f20"></ellipse>
        <ellipse transform="rotate(135.008 8.63 6.5)" cx="8.63" cy="6.5" rx="1.75" ry="1.499" fill="#231f20"></ellipse>
        <g>
            <path d="M8.165 14.719C8.654 15.535 9.733 16 11 16c1.266 0 2.345-.465 2.834-1.281" fill="none" stroke="#231f20" stroke-width="1.5" stroke-linecap="round" stroke-miterlimit="10"></path>
        </g>
    </symbol>
    <symbol viewBox='0 0 22 20' id='icon-sad'>
        <path d="M11 1C5.444 1 1 4.375 1 10s4.444 9 10 9c5.555 0 10-3.375 10-9s-4.445-9-10-9z" fill="#f7b23f"></path>
        <g fill="#231f20">
            <path d="M7.711 4.879l-1.716.981c-.368.637-.338 1.402.138 1.877.585.586 1.616.507 2.297-.176.684-.683.764-1.712.178-2.298a1.36 1.36 0 0 0-.897-.384zM14.289 4.879c-.337.02-.655.142-.896.383-.586.585-.506 1.615.176 2.298.684.683 1.713.763 2.299.177.476-.476.505-1.241.137-1.878l-1.716-.98z"></path>
        </g>
        <path d="M16.497 14.234a.752.752 0 0 1-.645-.364c-.796-1.327-2.61-2.12-4.853-2.12s-4.057.793-4.853 2.12a.75.75 0 1 1-1.286-.771C5.931 11.315 8.226 10.25 11 10.25s5.069 1.065 6.14 2.849a.75.75 0 0 1-.643 1.135z" fill="#231f20"></path>
    </symbol>
    <symbol viewBox='0 0 22 20' id='icon-smile'>
        <path d="M11 1C5.444 1 1 4.375 1 10s4.444 9 10 9c5.555 0 10-3.375 10-9s-4.445-9-10-9z" fill="#f7b23f"></path>
        <g fill="#231f20">
            <ellipse transform="rotate(45.001 14.63 6.5)" cx="14.63" cy="6.5" rx="1.75" ry="1.501"></ellipse>
            <ellipse transform="rotate(135.008 7.37 6.5)" cx="7.37" cy="6.5" rx="1.75" ry="1.499"></ellipse>
        </g>
        <path d="M11 14.734c-2.774 0-5.069-1.064-6.139-2.849a.75.75 0 0 1 1.286-.772c.796 1.327 2.61 2.12 4.853 2.12 2.242 0 4.057-.793 4.853-2.12a.75.75 0 0 1 1.287.772c-1.071 1.785-3.366 2.849-6.14 2.849z" fill="#231f20"></path>
    </symbol>
    <symbol viewBox='0 0 22 20' id='icon-star'>
        <path fill="#f59331" d="M11 15.926L5.151 19l1.118-6.513-4.732-4.612 6.539-.95L11 1l2.924 5.925 6.539.95-4.732 4.612L16.849 19z"></path>
    </symbol>
    <symbol viewBox='0 0 22 20' id='icon-surprised'>
        <path d="M11 1C5.444 1 1 4.375 1 10s4.444 9 10 9c5.555 0 10-3.375 10-9s-4.445-9-10-9z" fill="#f7b23f"></path>
        <path d="M8 16c0-2.209 1.343-4 3-4s3 1.791 3 4" fill="#d63f37"></path>
        <ellipse transform="rotate(44.992 14.63 7)" cx="14.629" cy="7" rx="3.5" ry="2.999" fill="#fff"></ellipse>
        <ellipse transform="rotate(135.008 7.37 7)" cx="7.371" cy="7" rx="3.5" ry="2.999" fill="#fff"></ellipse>
        <ellipse transform="rotate(45.017 14.63 7)" cx="14.63" cy="7" rx="1.399" ry="1.2" fill="#231f20"></ellipse>
        <ellipse transform="rotate(135.008 7.37 7)" cx="7.37" cy="7" rx="1.4" ry="1.2" fill="#231f20"></ellipse>
        <g>
            <g fill="#231f20">
                <path d="M4.911 1.469l.116-.119c.091-.075.147-.171.361-.301a2.92 2.92 0 0 1 .674-.348c.242-.112.516-.168.792-.224.279-.021.558-.064.826-.038.266 0 .519.045.725.125.205.066.364.193.465.273.102.083.15.143.15.143a.534.534 0 0 1-.28.851l-.167.044s-.063.016-.154.023a.674.674 0 0 1-.156.001c-.054-.01-.123.002-.194-.003-.142-.002-.296-.046-.478-.055-.176-.033-.373-.005-.569-.008-.189.043-.393.035-.567.09-.196.032-.323.093-.448.121-.118.008-.276.13-.361.164l-.15.072a.508.508 0 0 1-.585-.811zM16.504 2.28l-.149-.072c-.086-.033-.244-.155-.361-.164-.125-.029-.253-.09-.448-.122-.174-.055-.378-.046-.567-.089-.195.002-.393-.025-.569.007-.182.009-.336.053-.478.056-.071.005-.141-.008-.194.002a.615.615 0 0 1-.155-.001.976.976 0 0 1-.154-.023l-.165-.042a.534.534 0 0 1-.282-.852s.048-.06.15-.143c.101-.08.26-.208.465-.272a2.04 2.04 0 0 1 .726-.125c.268-.027.547.017.826.037.275.056.549.112.791.224.237.086.482.211.674.349.215.129.271.227.362.301l.116.119a.508.508 0 0 1-.588.81z"></path>
            </g>
        </g>
    </symbol>
    <symbol viewBox='0 0 22 20' id='icon-tongue'>
        <path d="M11 1C5.444 1 1 4.375 1 10s4.444 9 10 9c5.555 0 10-3.375 10-9s-4.445-9-10-9z" fill="#f7b23f"></path>
        <g fill="#231f20">
            <ellipse transform="rotate(45.001 14.63 6.5)" cx="14.63" cy="6.5" rx="1.75" ry="1.501"></ellipse>
            <ellipse transform="rotate(135.008 7.37 6.5)" cx="7.37" cy="6.5" rx="1.75" ry="1.499"></ellipse>
        </g>
        <path d="M8 13.75V15a3 3 0 1 0 6 0v-1.25H8z" fill="#d63f37"></path>
        <path d="M7.172 12.353l.251.296c.08.082.165.134.268.228.108.087.272.174.435.27.356.154.786.343 1.288.427.49.106 1.051.142 1.577.164.574-.022 1.104-.058 1.597-.164.502-.084.932-.272 1.287-.427.346-.179.581-.379.729-.52l.194-.24.048-.059a.504.504 0 1 1 .714.707l-.361.298c-.233.173-.59.356-1.014.529-.431.15-.938.283-1.48.36-.543.099-1.143.118-1.693.122-.599-.005-1.166-.024-1.713-.122a7.922 7.922 0 0 1-1.48-.36c-.211-.101-.405-.166-.584-.265-.175-.105-.351-.207-.455-.287l-.305-.242a.502.502 0 1 1 .697-.715z" fill="#231f20"></path>
    </symbol>
    <symbol viewBox='0 0 22 20' id='icon-twisted'>
        <path d="M19.968 5.742c.273-.73.83-2.862-.712-5.397L18.7.5c0 1.167-.771 1.946-1.312 2.354C15.659 1.65 13.437 1 11 1c-2.439 0-4.664.651-6.393 1.858C4.065 2.452 3.289 1.671 3.289.5L2.732.345c-1.55 2.551-.978 4.692-.707 5.409C1.375 6.969 1 8.389 1 10c0 5.625 4.444 9 10 9 5.555 0 10-3.375 10-9 0-1.617-.377-3.04-1.032-4.258z" fill="#e85646"></path>
        <path d="M6.133 7.737c.585.586 1.616.507 2.297-.176.236-.235.389-.513.477-.798l.369.185.447-.895-4-2-.447.894 1.019.509c-.668.683-.743 1.7-.162 2.281zm6.96-.974c.088.285.24.562.476.798.684.683 1.713.763 2.299.177.581-.581.506-1.598-.163-2.28l1.02-.51-.447-.895-4 2 .447.895.368-.185z" fill="#231f20"></path>
        <path d="M17.314 9.473a.5.5 0 0 0-.429-.098c-3.477.816-8.31.816-11.787 0a.5.5 0 0 0-.613.497c.074 3.396 2.75 5.767 6.507 5.767 3.758 0 6.435-2.371 6.508-5.767a.499.499 0 0 0-.186-.399z" fill="#fff"></path>
    </symbol>
    <symbol viewBox='0 0 22 20' id='icon-uneasy'>
        <path d="M11 1C5.444 1 1 4.375 1 10s4.444 9 10 9c5.555 0 10-3.375 10-9s-4.445-9-10-9z" fill="#f7b23f"></path>
        <g fill="#231f20">
            <ellipse transform="rotate(45.001 14.63 6.5)" cx="14.63" cy="6.5" rx="1.75" ry="1.501"></ellipse>
            <ellipse transform="rotate(135.008 7.37 6.5)" cx="7.37" cy="6.5" rx="1.75" ry="1.499"></ellipse>
        </g>
        <path d="M5.582 14.205a.75.75 0 0 1-.13-1.488l10.833-1.911a.75.75 0 0 1 .26 1.477l-10.833 1.91a.715.715 0 0 1-.13.012z" fill="#231f20"></path>
    </symbol>
    <symbol viewBox='0 0 22 20' id='icon-wink'>
        <path d="M11 1C5.444 1 1 4.375 1 10s4.444 9 10 9c5.555 0 10-3.375 10-9s-4.445-9-10-9z" fill="#f7b23f"></path>
        <g fill="#231f20">
            <ellipse transform="rotate(45.001 14.63 6.5)" cx="14.63" cy="6.5" rx="1.75" ry="1.501"></ellipse>
            <path d="M9.095 6.967s-.067-.02-.178-.063c-.098-.03-.296-.14-.429-.152a4.13 4.13 0 0 0-.507-.104c-.19-.061-.405-.035-.61-.055l-.338.017c-.15-.001-.224.027-.305.046a2.796 2.796 0 0 0-.505.113c-.164.034-.29.1-.388.129a1.786 1.786 0 0 1-.158.047l-.109.027a.503.503 0 0 1-.492-.825s.052-.058.152-.151c.108-.08.234-.25.45-.354.206-.116.445-.271.782-.348.162-.045.337-.09.452-.096l.458-.052c.325.041.653.05.942.155.291.066.557.228.78.356.248.127.302.253.41.332.086.083.132.135.132.135a.523.523 0 0 1-.539.843z"></path>
        </g>
        <path d="M11 14.734c-2.774 0-5.069-1.064-6.139-2.849a.75.75 0 0 1 1.286-.772c.796 1.327 2.61 2.12 4.853 2.12 2.242 0 4.057-.793 4.853-2.12a.75.75 0 0 1 1.287.772c-1.071 1.785-3.366 2.849-6.14 2.849z" fill="#231f20"></path>
    </symbol>
</svg>
